<mxfile host="app.diagrams.net" modified="2024-03-06T11:05:54.267Z" agent="Mozilla/5.0 (Windows NT 10.0; Win64; x64) AppleWebKit/537.36 (KHTML, like Gecko) Chrome/120.0.0.0 YaBrowser/24.1.0.0 Safari/537.36" version="23.0.2" etag="B0_D29lAx99tKjlTfJ9X" type="github">
  <diagram name="Страница — 1" id="-GXeoehV0clI0zTUkn1R">
    <mxGraphModel>
      <root>
        <mxCell id="0" />
        <mxCell id="1" parent="0" />
      </root>
    </mxGraphModel>
  </diagram>
</mxfile>
